<svg id="Слой_1" data-name="Слой 1" xmlns="http://www.w3.org/2000/svg" viewBox="0 0 180.28 26.26"><title>logo</title><path d="M0,0H4.1A1.8,1.8,0,0,1,5.17.3a1.44,1.44,0,0,1,.57.81l4.47,15.71q.16.58.3,1.26t.26,1.44q.15-.76.32-1.44t.37-1.26L16.62,1.11a1.72,1.72,0,0,1,.57-.76,1.61,1.61,0,0,1,1-.34h1.43a1.76,1.76,0,0,1,1.05.3,1.55,1.55,0,0,1,.58.81l5.12,15.71a20.88,20.88,0,0,1,.69,2.58q.13-.71.26-1.36t.28-1.22L32.13,1.11a1.46,1.46,0,0,1,.56-.78A1.7,1.7,0,0,1,33.75,0h3.83L29.42,26.26H25L19.27,8.32,19,7.57c-.08-.27-.15-.55-.23-.85-.07.3-.15.59-.23.85l-.23.75L12.57,26.26H8.16Z"/><path d="M72.9,13.13a14.56,14.56,0,0,1-1,5.35,12.69,12.69,0,0,1-2.71,4.26A12.26,12.26,0,0,1,65,25.54a15.15,15.15,0,0,1-10.87,0A12.33,12.33,0,0,1,50,22.74a12.59,12.59,0,0,1-2.72-4.26,14.55,14.55,0,0,1-1-5.35,14.55,14.55,0,0,1,1-5.35A12.59,12.59,0,0,1,50,3.52,12.33,12.33,0,0,1,54.17.72a14.22,14.22,0,0,1,5.44-1A14,14,0,0,1,65,.73a12.43,12.43,0,0,1,4.2,2.81,12.59,12.59,0,0,1,2.71,4.25A14.56,14.56,0,0,1,72.9,13.13Zm-5,0a12.23,12.23,0,0,0-.57-3.88,8.2,8.2,0,0,0-1.64-2.92A7.07,7.07,0,0,0,63.07,4.5a9.76,9.76,0,0,0-6.93,0,7.14,7.14,0,0,0-2.62,1.83,8.22,8.22,0,0,0-1.66,2.92,12,12,0,0,0-.58,3.88A12,12,0,0,0,51.85,17a8.13,8.13,0,0,0,1.66,2.91,7.19,7.19,0,0,0,2.62,1.83,9.76,9.76,0,0,0,6.93,0,7.13,7.13,0,0,0,2.61-1.83A8.11,8.11,0,0,0,67.32,17,12.23,12.23,0,0,0,67.89,13.13Z"/><path d="M97.78,16.57q.26.63.52,1.26.25-.65.53-1.29t.58-1.22L107.18.78a2,2,0,0,1,.3-.44.94.94,0,0,1,.35-.24,1.56,1.56,0,0,1,.43-.09l.56,0h3.69V26.26h-4.3V9.3c0-.31,0-.66,0-1s0-.76.08-1.14L100.37,22a2.09,2.09,0,0,1-.71.79,1.83,1.83,0,0,1-1,.28H98a1.83,1.83,0,0,1-1-.28,2.09,2.09,0,0,1-.71-.79l-8-14.95q.07.6.1,1.17c0,.38,0,.74,0,1.06v17H84V0h3.69l.56,0a1.57,1.57,0,0,1,.43.09,1,1,0,0,1,.35.24,1.87,1.87,0,0,1,.31.44l7.85,14.58Q97.51,15.95,97.78,16.57Z"/><path d="M148.15,26.26h-3.78a1.65,1.65,0,0,1-1-.32,1.81,1.81,0,0,1-.59-.79l-2-5.36H129.9l-2,5.36a1.73,1.73,0,0,1-.57.76,1.61,1.61,0,0,1-1,.34h-3.8L132.84,0h5Zm-17-9.92h8.37l-3.2-8.74q-.22-.58-.48-1.37t-.52-1.72q-.25.93-.5,1.73t-.48,1.4Z"/><path d="M161.23,0a1.26,1.26,0,0,1,.39.11,1.36,1.36,0,0,1,.34.24,4.28,4.28,0,0,1,.36.41L176.1,18.34q-.07-.64-.1-1.24c0-.41,0-.78,0-1.13V0h4.3V26.26h-2.52a2.23,2.23,0,0,1-1-.18,2.14,2.14,0,0,1-.74-.65L162.32,7.94q.05.58.08,1.15c0,.38,0,.73,0,1V26.26h-4.3V0h2.56A4.46,4.46,0,0,1,161.23,0Z"/></svg>