<svg id="Слой_1" data-name="Слой 1" xmlns="http://www.w3.org/2000/svg" viewBox="0 0 2300.13 353.12"><defs><style>.cls-1{fill:#fff;}</style></defs><title>wlogo</title><path class="cls-1" d="M5.41,11h37.8A16.15,16.15,0,0,1,53.3,14.06a14.94,14.94,0,0,1,5.4,7.75l69.49,233.82q1.88,6.35,3.41,13.62t2.93,15.26q1.65-8,3.29-15.38a122,122,0,0,1,3.76-13.5L220.69,21.81a17.18,17.18,0,0,1,5.52-7.39,15.1,15.1,0,0,1,10-3.41h13.14a15.67,15.67,0,0,1,10,3.05,16.76,16.76,0,0,1,5.52,7.75l78.64,233.82A229,229,0,0,1,351,283.57q1.41-7.74,2.59-14.79a100.37,100.37,0,0,1,3.05-13.15L426.34,21.81a14.63,14.63,0,0,1,5.28-7.51,15.49,15.49,0,0,1,10-3.29h35.45L372.11,347.43H331.26L246,90.83a142.3,142.3,0,0,1-4.69-16.9q-1.18,4.69-2.23,9c-.7,2.89-1.45,5.51-2.23,7.86L151.2,347.43H110.35Z"/><path class="cls-1" d="M927.79,179.34q0,37.8-12,69.37T882,303.06a151.15,151.15,0,0,1-52.47,35.33Q798.91,350.95,761.82,351t-67.61-12.56a151.35,151.35,0,0,1-52.36-35.33q-21.83-22.77-33.8-54.35t-12-69.37q0-37.8,12-69.38a160.25,160.25,0,0,1,33.8-54.46,151.94,151.94,0,0,1,52.36-35.57Q724.72,7.26,761.82,7.26t67.73,12.67A151.73,151.73,0,0,1,882,55.5,160.25,160.25,0,0,1,915.82,110Q927.79,141.55,927.79,179.34Zm-46.71,0q0-31-8.45-55.64T848.68,82a104,104,0,0,0-37.56-26.18Q789,46.7,761.82,46.7q-27,0-49.07,9.15A105.11,105.11,0,0,0,675.07,82q-15.62,17-24.06,41.67t-8.45,55.64q0,31,8.45,55.52t24.06,41.55a103.71,103.71,0,0,0,37.68,26.06q22.07,9,49.07,9,27.23,0,49.3-9a102.59,102.59,0,0,0,37.56-26.06q15.5-17,24-41.55T881.08,179.34Z"/><path class="cls-1" d="M1255.17,237.67q2.46,6.22,4.81,12.56,2.34-6.57,4.93-12.56c1.72-4,3.67-8,5.87-12.09L1384.64,18.76q3-5.4,6.34-6.58a29.23,29.23,0,0,1,9.39-1.17h33.57V347.43H1394V100.22c0-3.29.07-6.81.23-10.56s.39-7.59.71-11.51L1279.7,288.5q-5.88,10.56-16.44,10.56h-6.57q-10.56,0-16.43-10.56l-117.85-211q.71,6.1,1,12c.24,3.92.36,7.51.36,10.8V347.43h-39.91V11h33.57a29.35,29.35,0,0,1,9.39,1.17q3.29,1.19,6.34,6.58l116.2,207.06A88.9,88.9,0,0,1,1255.17,237.67Z"/><path class="cls-1" d="M1886.56,347.43h-35.22q-6.1,0-9.86-3.06a18.73,18.73,0,0,1-5.63-7.74l-31.46-81.23h-151L1622,336.63a18.41,18.41,0,0,1-5.63,7.51,15,15,0,0,1-9.86,3.29h-35.22L1705.79,11H1752Zm-220.44-124.9h125.59L1738.89,85.67A255.75,255.75,0,0,1,1728.8,54q-2.6,9.63-5,17.73t-4.81,14.2Z"/><path class="cls-1" d="M2055.47,12.54q2.93,1.53,6.69,6.22L2257,272.3q-.71-6.1-.94-11.85c-.16-3.84-.23-7.55-.23-11.15V11h39.91V347.43h-23a19.61,19.61,0,0,1-9-1.88,22.83,22.83,0,0,1-7.16-6.34L2061.92,85.9q.47,5.86.71,11.5t.23,10.33v239.7H2023V11h23.48Q2052.54,11,2055.47,12.54Z"/></svg>